name analog
datacolumns 19
datarows 46
range 0.0 0.0225
endheader
time	ground_force_vx	ground_force_vy	ground_force_vz	ground_force_px	ground_force_py	ground_force_pz	l_ground_force_vx	l_ground_force_vy	l_ground_force_vz	l_ground_force_px	l_ground_force_py	l_ground_force_pz	ground_torque_x	ground_torque_y	ground_torque_z	l_ground_torque_x	l_ground_torque_y	l_ground_torque_z
0.0	-0.0	-0.0	-0.0	7.928605556488037	35.111907958984375	-417.1719665527344	-4.04171085357666	-29.824607849121094	-463.7845153808594	-0.0	-0.0	-0.0	-0.0	-0.0	-0.0	129928.265625	17.6988468170166	-2133.224609375
0.0005	-0.0	-0.0	-0.0	7.404472351074219	35.15631484985352	-421.0555114746094	-4.09784460067749	-30.14560317993164	-459.1772155761719	-0.0	-0.0	-0.0	-0.0	-0.0	-0.0	128701.265625	329.89727783203125	-2265.038330078125
0.001	-0.0	-0.0	-0.0	6.42315673828125	35.473899841308594	-425.4730224609375	-4.640785217285156	-30.51541328430176	-453.9838562011719	-0.0	-0.0	-0.0	-0.0	-0.0	-0.0	127224.0859375	724.052490234375	-2575.1484375
0.0015	-0.0	-0.0	-0.0	5.87639856338501	35.217994689941406	-431.0788879394531	-4.712774753570557	-30.41023826599121	-451.6931762695313	-0.0	-0.0	-0.0	-0.0	-0.0	-0.0	126102.703125	1010.2969360351562	-2638.19970703125
0.002	-0.0	-0.0	-0.0	5.961637496948242	35.00496292114258	-434.3652038574219	-4.812908172607422	-30.67005157470703	-447.5043029785156	-0.0	-0.0	-0.0	-0.0	-0.0	-0.0	125268.21875	1145.3291015625	-2677.21044921875
0.0025	-0.0	-0.0	-0.0	5.534438133239746	34.1134147644043	-439.8757019042969	-5.156609058380127	-30.763107299804688	-444.6221923828125	-0.0	-0.0	-0.0	-0.0	-0.0	-0.0	124111.78125	1416.334228515625	-2809.023193359375
0.003	-0.0	-0.0	-0.0	5.073139190673828	33.86955261230469	-442.781494140625	-5.6388678550720215	-30.80143547058105	-442.3751220703125	-0.0	-0.0	-0.0	-0.0	-0.0	-0.0	123452.09375	1556.0128173828125	-3033.731689453125
0.0035	-0.0	-0.0	-0.0	5.171676158905029	33.70077133178711	-445.87591552734375	-5.854911804199219	-30.774320602416992	-439.0352783203125	-0.0	-0.0	-0.0	-0.0	-0.0	-0.0	122805.2890625	1798.5164794921875	-3029.937744140625
0.004	-0.0	-0.0	-0.0	4.728157043457031	32.66233825683594	-450.7537231445313	-5.993851184844971	-30.824268341064453	-437.3355407714844	-0.0	-0.0	-0.0	-0.0	-0.0	-0.0	122356.0078125	1881.55126953125	-3050.6923828125
0.0045000000000000005	-0.0	-0.0	-0.0	4.894309043884277	32.24235153198242	-454.9928894042969	-5.893331050872803	-30.571123123168945	-436.0903930664063	-0.0	-0.0	-0.0	-0.0	-0.0	-0.0	121491.6484375	2055.444091796875	-3093.04638671875
0.005	-0.0	-0.0	-0.0	4.651331901550293	32.086944580078125	-458.02532958984375	-5.727839946746826	-30.48291778564453	-434.250244140625	-0.0	-0.0	-0.0	-0.0	-0.0	-0.0	121042.96875	2252.530517578125	-3202.704833984375
0.0055	-0.0	-0.0	-0.0	4.60057544708252	31.90868377685547	-463.2201843261719	-6.09479570388794	-30.58543586730957	-432.99554443359375	-0.0	-0.0	-0.0	-0.0	-0.0	-0.0	120669.515625	2332.542236328125	-3339.216552734375
0.006	-0.0	-0.0	-0.0	4.702495098114014	32.163055419921875	-466.5007019042969	-6.059890270233154	-30.38265991210937	-429.7575073242188	-0.0	-0.0	-0.0	-0.0	-0.0	-0.0	120108.5703125	2458.0146484375	-3389.1201171875
0.006500000000000001	-0.0	-0.0	-0.0	4.906555652618408	32.26520538330078	-469.17431640625	-6.386053085327148	-30.5961971282959	-429.9559326171875	-0.0	-0.0	-0.0	-0.0	-0.0	-0.0	119677.8046875	2623.462158203125	-3542.333740234375
0.007	-0.0	-0.0	-0.0	4.893431186676025	32.672706604003906	-472.95751953125	-6.412045478820801	-30.685596466064453	-429.4042663574219	-0.0	-0.0	-0.0	-0.0	-0.0	-0.0	119531.2109375	2746.30224609375	-3572.0390625
0.0075	-0.0	-0.0	-0.0	4.99578857421875	33.0172004699707	-476.3403015136719	-6.387176513671875	-30.73594665527344	-427.1611328125	-0.0	-0.0	-0.0	-0.0	-0.0	-0.0	118995.140625	2821.74462890625	-3618.728515625
0.008	-0.0	-0.0	-0.0	5.225372791290283	32.83930206298828	-477.5460510253906	-6.678592205047607	-30.45832252502441	-426.51318359375	-0.0	-0.0	-0.0	-0.0	-0.0	-0.0	118762.4375	3013.3564453125	-3703.484375
0.0085	-0.0	-0.0	-0.0	5.39061450958252	33.67806625366211	-480.8282775878906	-6.716926574707031	-30.50874900817871	-425.3654479980469	-0.0	-0.0	-0.0	-0.0	-0.0	-0.0	118472.015625	3202.082763671875	-3864.557373046875
0.009000000000000001	-0.0	-0.0	-0.0	5.4552001953125	34.0456657409668	-484.0595703125	-6.970274925231934	-30.837167739868164	-425.4667663574219	-0.0	-0.0	-0.0	-0.0	-0.0	-0.0	118348.5234375	3146.958251953125	-3983.770751953125
0.0095	-0.0	-0.0	-0.0	5.520051956176758	34.55817794799805	-483.2033996582031	-6.72898006439209	-31.138607025146484	-423.37200927734375	-0.0	-0.0	-0.0	-0.0	-0.0	-0.0	118005.3671875	3425.95458984375	-3992.465576171875
0.01	-0.0	-0.0	-0.0	5.785080432891846	34.92853164672852	-484.2936401367188	-6.919441223144531	-31.202003479003903	-422.5181579589844	-0.0	-0.0	-0.0	-0.0	-0.0	-0.0	117498.2890625	3190.27880859375	-4101.4541015625
0.0105	-0.0	-0.0	-0.0	6.357965469360352	35.73786544799805	-486.1793518066406	-7.150142192840576	-31.46678924560547	-421.775146484375	-0.0	-0.0	-0.0	-0.0	-0.0	-0.0	117231.6484375	3450.764892578125	-4200.16162109375
0.011	-0.0	-0.0	-0.0	6.385455131530762	36.1630744934082	-487.5375671386719	-6.957095146179199	-31.78246307373047	-420.4840393066406	-0.0	-0.0	-0.0	-0.0	-0.0	-0.0	116794.296875	3603.741455078125	-4237.9052734375
0.0115	-0.0	-0.0	-0.0	6.474746227264404	36.3791618347168	-487.4436340332031	-7.390120029449463	-32.45146942138672	-418.9696960449219	-0.0	-0.0	-0.0	-0.0	-0.0	-0.0	116670.21875	3644.593505859375	-4328.3896484375
0.012	-0.0	-0.0	-0.0	6.399628162384033	37.195457458496094	-488.5966491699219	-7.656417846679687	-32.23741912841797	-416.9810485839844	-0.0	-0.0	-0.0	-0.0	-0.0	-0.0	116080.609375	4079.0224609375	-4361.69677734375
0.0125	-0.0	-0.0	-0.0	6.1322126388549805	37.040775299072266	-488.5963439941406	-7.782876014709473	-32.98128890991211	-417.0344848632813	-0.0	-0.0	-0.0	-0.0	-0.0	-0.0	115961.765625	4054.007080078125	-4485.26611328125
0.013000000000000001	-0.0	-0.0	-0.0	5.90222692489624	37.18169784545898	-489.9172973632813	-7.755230903625488	-32.943992614746094	-414.8844909667969	-0.0	-0.0	-0.0	-0.0	-0.0	-0.0	115464.921875	4229.37109375	-4547.82470703125
0.0135	-0.0	-0.0	-0.0	5.65765905380249	37.82865524291992	-490.4759521484375	-8.161392211914062	-32.981178283691406	-414.9942626953125	-0.0	-0.0	-0.0	-0.0	-0.0	-0.0	115327.859375	4399.74755859375	-4619.9130859375
0.014	-0.0	-0.0	-0.0	5.441841125488281	37.48661804199219	-491.215576171875	-8.101017951965332	-32.99520492553711	-413.1930541992188	-0.0	-0.0	-0.0	-0.0	-0.0	-0.0	114952.21875	4635.36962890625	-4790.052734375
0.0145	-0.0	-0.0	-0.0	5.270260810852051	37.49452972412109	-490.2137451171875	-8.006892204284668	-33.516597747802734	-411.5595397949219	-0.0	-0.0	-0.0	-0.0	-0.0	-0.0	114351.7109375	4653.27880859375	-4819.7822265625
0.015	-0.0	-0.0	-0.0	5.129345417022705	37.34564208984375	-491.9796752929688	-8.264474868774414	-33.40829849243164	-410.07373046875	-0.0	-0.0	-0.0	-0.0	-0.0	-0.0	114038.0625	4732.52587890625	-4817.94921875
0.0155	-0.0	-0.0	-0.0	4.571927547454834	37.61302947998047	-493.7760314941406	-8.095239639282227	-33.56224060058594	-409.1485290527344	-0.0	-0.0	-0.0	-0.0	-0.0	-0.0	113666.59375	4799.7685546875	-4861.92333984375
0.016	-0.0	-0.0	-0.0	4.65401029586792	37.672061920166016	-493.0988464355469	-8.153666496276855	-33.775753021240234	-408.3889465332031	-0.0	-0.0	-0.0	-0.0	-0.0	-0.0	112813.7578125	5101.84033203125	-4908.94482421875
0.0165	-0.0	-0.0	-0.0	4.266912460327148	37.85200500488281	-493.95220947265625	-8.442303657531738	-33.81249237060547	-406.87799072265625	-0.0	-0.0	-0.0	-0.0	-0.0	-0.0	112534.2265625	5206.50830078125	-5042.6533203125
0.017	-0.0	-0.0	-0.0	3.783792972564697	37.37622833251953	-495.8040466308594	-8.34593391418457	-33.46683120727539	-404.7839965820313	-0.0	-0.0	-0.0	-0.0	-0.0	-0.0	112161.59375	5235.62060546875	-5082.00634765625
0.0175	-0.0	-0.0	-0.0	3.6791505813598633	37.27188873291016	-496.65618896484375	-8.5162353515625	-33.723976135253906	-404.58056640625	-0.0	-0.0	-0.0	-0.0	-0.0	-0.0	111746.1484375	5240.560546875	-5210.837890625
0.018000000000000002	-0.0	-0.0	-0.0	3.810678482055664	37.361175537109375	-499.9342956542969	-8.509720802307129	-33.65056610107422	-402.8614196777344	-0.0	-0.0	-0.0	-0.0	-0.0	-0.0	111378.2578125	5507.169921875	-5282.4970703125
0.0185	-0.0	-0.0	-0.0	3.620862007141113	37.21977233886719	-500.6015625	-8.834351539611816	-33.878963470458984	-401.87353515625	-0.0	-0.0	-0.0	-0.0	-0.0	-0.0	111153.5	5488.96826171875	-5314.54736328125
0.019	-0.0	-0.0	-0.0	3.489751100540161	36.90519714355469	-504.07080078125	-8.531576156616211	-33.5987663269043	-400.8864440917969	-0.0	-0.0	-0.0	-0.0	-0.0	-0.0	110741.203125	5645.8603515625	-5396.06005859375
0.0195	-0.0	-0.0	-0.0	3.7261109352111816	37.2676010131836	-504.3409423828125	-8.41202449798584	-33.65614700317383	-398.1769104003906	-0.0	-0.0	-0.0	-0.0	-0.0	-0.0	110462.671875	5836.41162109375	-5437.86767578125
0.02	-0.0	-0.0	-0.0	3.9938671588897705	36.952545166015625	-504.8841552734375	-8.333415031433105	-33.27638626098633	-398.5046691894531	-0.0	-0.0	-0.0	-0.0	-0.0	-0.0	109995.484375	5676.5703125	-5465.5458984375
0.0205	-0.0	-0.0	-0.0	4.334781646728516	36.84735870361328	-507.2942199707031	-8.58922004699707	-33.349266052246094	-397.0274658203125	-0.0	-0.0	-0.0	-0.0	-0.0	-0.0	109602.3671875	5785.14599609375	-5549.5517578125
0.021	-0.0	-0.0	-0.0	4.054839134216309	37.11468124389648	-507.8237609863281	-8.411662101745605	-33.458126068115234	-395.1587219238281	-0.0	-0.0	-0.0	-0.0	-0.0	-0.0	109541.046875	5780.6923828125	-5425.515625
0.021500000000000002	-0.0	-0.0	-0.0	4.091012954711914	36.98542785644531	-510.69818115234375	-8.677711486816406	-33.00056076049805	-395.7496948242188	-0.0	-0.0	-0.0	-0.0	-0.0	-0.0	109065.9140625	5821.24951171875	-5465.90283203125
0.022	-0.0	-0.0	-0.0	4.5332112312316895	36.61608505249024	-511.2083129882813	-8.35901165008545	-33.3654899597168	-395.16015625	-0.0	-0.0	-0.0	-0.0	-0.0	-0.0	108956.796875	5865.2646484375	-5672.12890625
0.0225	-0.0	-0.0	-0.0	4.625289916992188	36.47096633911133	-513.4459228515625	-8.092698097229004	-33.14056396484375	-393.1447143554688	-0.0	-0.0	-0.0	-0.0	-0.0	-0.0	108609.875	6109.48388671875	-5597.70654296875
